filtEMG_segment_16.mot
version=1
nRows=56
nColumns=5
inDegrees=no
endheader
                Time	                LGAS	             LLATGAS	                LSOL	                LTIA	
          5.47500000	          0.00342281	          0.01310321	          0.00206277	          0.00307933	
          5.48000000	          0.00350449	          0.01359372	          0.00199130	          0.00304029	
          5.48500000	          0.00359088	          0.01409583	          0.00195462	          0.00296885	
          5.49000000	          0.00368321	          0.01458897	          0.00195437	          0.00286825	
          5.49500000	          0.00378187	          0.01505040	          0.00198834	          0.00274357	
          5.50000000	          0.00388588	          0.01545732	          0.00205088	          0.00260138	
          5.50500000	          0.00399266	          0.01578943	          0.00213362	          0.00244928	
          5.51000000	          0.00409795	          0.01603139	          0.00222647	          0.00229542	
          5.51500000	          0.00419596	          0.01617508	          0.00231877	          0.00214795	
          5.52000000	          0.00427972	          0.01622102	          0.00240045	          0.00201455	
          5.52500000	          0.00434171	          0.01617895	          0.00246307	          0.00190202	
          5.53000000	          0.00437450	          0.01606714	          0.00250063	          0.00181589	
          5.53500000	          0.00437153	          0.01591060	          0.00251007	          0.00176025	
          5.54000000	          0.00432788	          0.01573826	          0.00249139	          0.00173760	
          5.54500000	          0.00424091	          0.01557945	          0.00244744	          0.00174882	
          5.55000000	          0.00411072	          0.01546021	          0.00238340	          0.00179324	
          5.55500000	          0.00394041	          0.01539980	          0.00230602	          0.00186876	
          5.56000000	          0.00373606	          0.01540809	          0.00222274	          0.00197196	
          5.56500000	          0.00350644	          0.01548408	          0.00214079	          0.00209827	
          5.57000000	          0.00326253	          0.01561584	          0.00206643	          0.00224219	
          5.57500000	          0.00301681	          0.01578187	          0.00200428	          0.00239740	
          5.58000000	          0.00278244	          0.01595364	          0.00195696	          0.00255702	
          5.58500000	          0.00257235	          0.01609906	          0.00192498	          0.00271387	
          5.59000000	          0.00239843	          0.01618632	          0.00190689	          0.00286071	
          5.59500000	          0.00227067	          0.01618759	          0.00189970	          0.00299055	
          5.60000000	          0.00219647	          0.01608225	          0.00189936	          0.00309708	
          5.60500000	          0.00218014	          0.01585903	          0.00190149	          0.00317490	
          5.61000000	          0.00222258	          0.01551720	          0.00190198	          0.00321997	
          5.61500000	          0.00232110	          0.01506653	          0.00189757	          0.00322979	
          5.62000000	          0.00246958	          0.01452619	          0.00188630	          0.00320363	
          5.62500000	          0.00265878	          0.01392304	          0.00186770	          0.00314263	
          5.63000000	          0.00287692	          0.01328930	          0.00184284	          0.00304973	
          5.63500000	          0.00311042	          0.01266013	          0.00181414	          0.00292956	
          5.64000000	          0.00334479	          0.01207132	          0.00178496	          0.00278816	
          5.64500000	          0.00356564	          0.01155712	          0.00175924	          0.00263267	
          5.65000000	          0.00375967	          0.01114849	          0.00174088	          0.00247087	
          5.65500000	          0.00391564	          0.01087161	          0.00173341	          0.00231083	
          5.66000000	          0.00402510	          0.01074677	          0.00173951	          0.00216038	
          5.66500000	          0.00408299	          0.01078741	          0.00176089	          0.00202673	
          5.67000000	          0.00408791	          0.01099943	          0.00179816	          0.00191603	
          5.67500000	          0.00404206	          0.01138063	          0.00185094	          0.00183309	
          5.68000000	          0.00395094	          0.01192044	          0.00191805	          0.00178107	
          5.68500000	          0.00382270	          0.01259985	          0.00199772	          0.00176132	
          5.69000000	          0.00366743	          0.01339171	          0.00208790	          0.00177330	
          5.69500000	          0.00349615	          0.01426151	          0.00218644	          0.00181458	
          5.70000000	          0.00332002	          0.01516868	          0.00229123	          0.00188097	
          5.70500000	          0.00314943	          0.01606839	          0.00240027	          0.00196678	
          5.71000000	          0.00299335	          0.01691393	          0.00251161	          0.00206514	
          5.71500000	          0.00285890	          0.01765945	          0.00262332	          0.00216845	
          5.72000000	          0.00275113	          0.01826296	          0.00273329	          0.00226886	
          5.72500000	          0.00267297	          0.01868931	          0.00283920	          0.00235885	
          5.73000000	          0.00262554	          0.01891287	          0.00293835	          0.00243175	
          5.73500000	          0.00260838	          0.01891966	          0.00302775	          0.00248230	
          5.74000000	          0.00261995	          0.01870870	          0.00310410	          0.00250702	
          5.74500000	          0.00265796	          0.01829229	          0.00316398	          0.00250456	
          5.75000000	          0.00271979	          0.01769539	          0.00320406	          0.00247581	
